<svg width="22" height="20" viewBox="0 0 22 20" fill="none" xmlns="http://www.w3.org/2000/svg">
<path d="M10.804 11.6743C10.3477 11.6743 9.97939 12.0428 9.97939 12.4992V15.2487C9.97939 15.7051 10.3477 16.0735 10.804 16.0735C11.2603 16.0735 11.6286 15.7051 11.6286 15.2487V12.4992C11.6286 12.0428 11.2603 11.6743 10.804 11.6743Z" fill="#979797"/>
<path d="M21.3703 9.7223L12.2444 0.593896C11.4527 -0.197965 10.1608 -0.197965 9.36916 0.593896L0.243266 9.7223C-0.0810885 10.0467 -0.0810885 10.5692 0.243266 10.8881C0.56762 11.2125 1.08988 11.2125 1.40874 10.8881L2.55772 9.7388V19.1751C2.55772 19.6316 2.92606 20 3.38235 20C3.83865 20 4.20698 19.6316 4.20698 19.1751V8.08908L10.5346 1.75969C10.6831 1.61122 10.9305 1.61122 11.0789 1.75969L17.4065 8.08908V19.1751C17.4065 19.6316 17.7749 20 18.2312 20C18.6875 20 19.0558 19.6316 19.0558 19.1751V9.7388L20.1993 10.8881C20.3587 11.0476 20.5731 11.1301 20.782 11.1301C20.9909 11.1301 21.2053 11.0476 21.3648 10.8881C21.6891 10.5637 21.6891 10.0412 21.3703 9.7223Z" fill="#979797"/>
</svg>
