<svg width="12" height="20" viewBox="0 0 12 20" fill="none" xmlns="http://www.w3.org/2000/svg">
<path d="M5.82209 8.77725C5.24871 8.77725 4.67532 8.58612 4.22935 8.19896L1.58294 5.92011C0.798822 5.24381 0.210732 3.95981 0.210732 2.93065V0H1.68096V2.93065C1.68096 3.52364 2.08772 4.41558 2.53859 4.80274L5.185 7.08159C5.52315 7.37073 6.11614 7.37073 6.45429 7.08159L9.1007 4.80274C9.55157 4.41558 9.95833 3.52364 9.95833 2.93065V0H11.4286V2.93065C11.4286 3.95981 10.8405 5.24381 10.0612 5.91521L7.41484 8.19406C6.96887 8.58612 6.39548 8.77725 5.82209 8.77725Z" fill="#979797"/>
<path d="M5.8221 19.9999C2.6121 19.9999 0 17.3878 0 14.1778C0 10.9678 2.6121 8.35571 5.8221 8.35571C9.03209 8.35571 11.6442 10.9678 11.6442 14.1778C11.6442 17.3878 9.03209 19.9999 5.8221 19.9999ZM5.8221 9.82594C3.42073 9.82594 1.47023 11.7764 1.47023 14.1778C1.47023 16.5792 3.42073 18.5297 5.8221 18.5297C8.22346 18.5297 10.174 16.5792 10.174 14.1778C10.174 11.7764 8.21856 9.82594 5.8221 9.82594Z" fill="#979797"/>
<path d="M7.41483 14.1779C7.41483 15.0552 6.70422 15.7707 5.82208 15.7707C4.94485 15.7707 4.22934 15.0552 4.22934 14.1779C4.22934 13.3007 4.93995 12.5852 5.82208 12.5852C6.69932 12.5852 7.41483 13.2958 7.41483 14.1779Z" fill="#979797"/>
</svg>
