<svg width="17" height="20" viewBox="0 0 17 20" fill="none" xmlns="http://www.w3.org/2000/svg">
<path d="M8.09385 9.28446C5.5308 9.28446 3.44868 7.20235 3.44868 4.6393C3.44868 2.08211 5.53666 0 8.09385 0C10.651 0 12.739 2.08211 12.739 4.64516C12.739 7.20235 10.6569 9.28446 8.09385 9.28446ZM8.09385 1.75953C6.5044 1.75953 5.20822 3.05572 5.20822 4.64516C5.20822 6.2346 6.5044 7.53079 8.09385 7.53079C9.68329 7.53079 10.9795 6.2346 10.9795 4.64516C10.9795 3.05572 9.68329 1.75953 8.09385 1.75953Z" fill="#979797"/>
<path d="M15.3079 20C14.8211 20 14.4282 19.6071 14.4282 19.1203V15.22C14.4282 13.7772 13.2551 12.6041 11.8065 12.6041H4.37537C2.93255 12.6041 1.75953 13.7772 1.75953 15.22V19.1203C1.75953 19.6071 1.36657 20 0.879765 20C0.392962 20 0 19.6012 0 19.1203V15.22C0 12.8035 1.96481 10.8446 4.37537 10.8446H11.8065C14.2229 10.8446 16.1877 12.8094 16.1877 15.22V19.1203C16.1877 19.6012 15.7947 20 15.3079 20Z" fill="#979797"/>
</svg>
