<svg width="20" height="20" viewBox="0 0 20 20" fill="none" xmlns="http://www.w3.org/2000/svg">
<path d="M10 20C4.48552 20 0 15.5145 0 10C0 4.48552 4.48552 0 10 0C15.5145 0 20 4.48552 20 10C20 15.5145 15.5145 20 10 20ZM10 1.3363C5.22049 1.3363 1.3363 5.22049 1.3363 10C1.3363 14.7795 5.22049 18.6637 10 18.6637C14.7751 18.6637 18.6637 14.7795 18.6637 10C18.6637 5.22049 14.7751 1.3363 10 1.3363Z" fill="#979797"/>
<path d="M11.2472 9.33197H8.75279C8.62361 9.33197 8.51671 9.22506 8.51671 9.09589V7.58586C8.51671 7.45223 8.62361 7.34978 8.75279 7.34978H11.2472C11.3808 7.34978 11.4833 7.45669 11.4833 7.58586H12.8196C12.8196 6.71727 12.1158 6.01348 11.2472 6.01348H10.6682V4.42773H9.33185V6.00903H8.75279C7.88419 6.00903 7.1804 6.71281 7.1804 7.58141V9.09143C7.1804 9.96003 7.88419 10.6638 8.75279 10.6638H11.2472C11.3764 10.6638 11.4833 10.7707 11.4833 10.9043V12.4144C11.4833 12.548 11.3764 12.6505 11.2472 12.6505H8.75279C8.62361 12.6505 8.51671 12.5435 8.51671 12.4144H7.1804C7.1804 13.283 7.88419 13.9868 8.75279 13.9868H9.33185V15.568H10.6682V13.9868H11.2472C12.1158 13.9868 12.8196 13.283 12.8196 12.4144V10.9043C12.8196 10.0402 12.1158 9.33197 11.2472 9.33197Z" fill="#979797"/>
</svg>
