<svg width="24" height="24" viewBox="0 0 24 24" fill="none" xmlns="http://www.w3.org/2000/svg">
<path d="M16.1666 19.5V17.8333C16.1666 16.9493 15.8154 16.1014 15.1903 15.4763C14.5652 14.8512 13.7173 14.5 12.8333 14.5H6.16659C5.28253 14.5 4.43468 14.8512 3.80956 15.4763C3.18444 16.1014 2.83325 16.9493 2.83325 17.8333V19.5" stroke="#303030" stroke-width="1.5" stroke-linecap="round" stroke-linejoin="round"/>
<path d="M9.50008 11.1667C11.341 11.1667 12.8334 9.67428 12.8334 7.83333C12.8334 5.99238 11.341 4.5 9.50008 4.5C7.65913 4.5 6.16675 5.99238 6.16675 7.83333C6.16675 9.67428 7.65913 11.1667 9.50008 11.1667Z" stroke="#303030" stroke-width="1.5" stroke-linecap="round" stroke-linejoin="round"/>
<path d="M21.1667 19.5001V17.8334C21.1662 17.0948 20.9204 16.3774 20.4679 15.7937C20.0154 15.2099 19.3819 14.793 18.6667 14.6084" stroke="#303030" stroke-width="1.5" stroke-linecap="round" stroke-linejoin="round"/>
<path d="M15.3333 4.6084C16.0503 4.79198 16.6858 5.20898 17.1396 5.79366C17.5935 6.37833 17.8398 7.09742 17.8398 7.83757C17.8398 8.57771 17.5935 9.2968 17.1396 9.88147C16.6858 10.4661 16.0503 10.8831 15.3333 11.0667" stroke="#303030" stroke-width="1.5" stroke-linecap="round" stroke-linejoin="round"/>
</svg>
