<svg width="19" height="20" viewBox="0 0 19 20" fill="none" xmlns="http://www.w3.org/2000/svg">
<path d="M15.6444 20H2.90719C1.30196 20 0 18.698 0 17.0928V2.90719C0 1.30196 1.30196 0 2.90719 0H15.6444C17.2444 0 18.5516 1.30196 18.5516 2.90719V17.0928C18.5516 18.698 17.2497 20 15.6444 20ZM2.90719 1.56863C2.16993 1.56863 1.56863 2.16993 1.56863 2.90719V17.0928C1.56863 17.8301 2.16993 18.4314 2.90719 18.4314H15.6444C16.3817 18.4314 16.983 17.8301 16.983 17.0928V2.90719C16.983 2.16993 16.3817 1.56863 15.6444 1.56863H2.90719Z" fill="#979797"/>
<path d="M5.00392 7.21572V3.25232H6.57255C6.63529 5.44317 5.83529 9.9765 9.27582 9.91376C10.766 9.91376 11.9739 8.70591 11.9791 7.21049V3.25232H13.5477C13.7412 6.55689 13.8196 11.4772 9.28105 11.4824C6.91765 11.4824 5.00392 9.57389 5.00392 7.21572Z" fill="#979797"/>
</svg>
