<svg width="91" height="88" viewBox="0 0 91 88" fill="none" xmlns="http://www.w3.org/2000/svg">
<g clip-path="url(#clip0_490_3253)">
<path d="M61.7043 66.2891C61.3638 66.2891 61.0233 66.1193 60.8207 65.812L47.713 45.9204L43.1411 43.2601L33.8352 46.4137C33.3488 46.5835 32.8138 46.3733 32.5625 45.9204L25.5831 33.0556C23.8241 32.1985 21.6678 32.8292 20.6708 34.5434L9.63826 53.4081C9.34644 53.9094 8.69794 54.0792 8.19536 53.7881C7.69277 53.497 7.52255 52.8501 7.81437 52.3488L18.855 33.4761C19.6494 32.1176 20.9221 31.1554 22.446 30.7592C23.97 30.363 25.5507 30.5732 26.9125 31.3656C27.0828 31.4627 27.2206 31.6082 27.3097 31.778L34.0135 44.1334L42.9303 41.1093C43.2222 41.0122 43.5383 41.0446 43.8058 41.1982L49.01 44.2305C49.1478 44.3113 49.2694 44.4245 49.3585 44.562L62.6041 64.6557C62.9283 65.1409 62.7905 65.7958 62.3041 66.1193C62.1096 66.2325 61.9069 66.2891 61.7043 66.2891Z" fill="#2C2C2C"/>
<path d="M81.3131 79.2105C80.7295 79.2105 80.2593 78.7415 80.2593 78.1593C80.2593 71.4722 74.8039 66.0303 68.1 66.0303H62.7662V69.9601C62.7662 70.5423 62.296 71.0113 61.7124 71.0113C61.1287 71.0113 60.6586 70.5423 60.6586 69.9601V64.9791C60.6586 64.3969 61.1287 63.9279 61.7124 63.9279H68.0919C75.963 63.9279 82.3669 70.3159 82.3669 78.1674C82.375 78.7334 81.8968 79.2105 81.3131 79.2105Z" fill="#2C2C2C"/>
<path d="M81.3131 88H49.7477C49.5612 88 49.3748 87.9515 49.2127 87.8545L1.65369 60.1599C0.0648765 59.2381 -0.470131 57.1923 0.453973 55.6075L2.60211 51.9364C3.04795 51.1682 3.7694 50.6184 4.63676 50.4001C5.49602 50.1737 6.3958 50.295 7.16589 50.7478L52.4227 77.1001H81.3131C83.1532 77.1001 84.6448 78.596 84.6448 80.4234V84.6767C84.6529 86.5041 83.1532 88 81.3131 88ZM50.0395 85.8896H81.3212C81.9941 85.8896 82.5372 85.3478 82.5372 84.6767V80.4234C82.5372 79.7523 81.9941 79.2105 81.3212 79.2105H52.139C51.9525 79.2105 51.7661 79.162 51.604 79.065L6.09588 52.5671C5.51223 52.2275 4.76646 52.4216 4.426 53.0038L2.27786 56.6748C1.9374 57.257 2.13195 58.0009 2.7156 58.3405L50.0395 85.8896Z" fill="#2C2C2C"/>
<path d="M49.7477 88C49.618 88 49.4883 87.9757 49.3667 87.9272C48.8236 87.717 48.5561 87.1024 48.7668 86.5607L49.853 83.7791C50.0638 83.2373 50.6799 82.9624 51.223 83.1807C51.7661 83.391 52.0417 84.0055 51.8228 84.5473L50.7366 87.3288C50.5745 87.7412 50.1773 88 49.7477 88Z" fill="#2C2C2C"/>
<path d="M61.7043 66.0222C61.6638 66.0222 61.6232 66.0222 61.5908 66.0141C39.6555 63.5964 38.4801 48.6373 38.472 48.4918C38.4558 48.1845 38.5693 47.8934 38.78 47.6751C38.9989 47.4648 39.2907 47.3516 39.5987 47.3759C46.716 47.8934 47.4131 44.9905 47.4212 44.9582C47.5347 44.4003 48.0778 44.0202 48.6452 44.1172C49.2046 44.2143 49.5937 44.7237 49.5126 45.2897C49.4883 45.4757 48.7749 49.6885 40.7741 49.543C41.5118 52.8663 45.0704 62.0763 61.8259 63.9199C62.4095 63.9846 62.823 64.5021 62.7581 65.0843C62.6933 65.6179 62.2393 66.0222 61.7043 66.0222Z" fill="#2C2C2C"/>
<path d="M43.7085 56.1896C43.1654 56.1896 42.5898 56.1654 41.9819 56.1007C41.3982 56.0441 40.9767 55.5266 41.0334 54.9444C41.0902 54.3622 41.609 53.9337 42.1926 53.9983C49.1964 54.6937 51.1743 50.3677 51.1905 50.3273C51.4256 49.7936 52.0497 49.551 52.5847 49.7855C53.1198 50.02 53.3629 50.6426 53.1279 51.1763C53.0306 51.3866 50.8419 56.1896 43.7085 56.1896Z" fill="#2C2C2C"/>
<path d="M49.7476 62.6989C49.2288 62.6989 48.783 62.3188 48.7019 61.7932C48.6208 61.2191 49.018 60.6774 49.5936 60.5965C49.6746 60.5884 54.2952 59.8607 55.7786 57.1438C56.0542 56.6344 56.7027 56.4403 57.2134 56.7233C57.7241 56.9982 57.9186 57.6451 57.6349 58.1545C55.6408 61.8175 50.1286 62.6585 49.9016 62.6908C49.853 62.6989 49.7962 62.6989 49.7476 62.6989Z" fill="#2C2C2C"/>
<path d="M20.3546 60.7017C20.1844 60.7017 20.0142 60.6612 19.852 60.5723C19.3414 60.2974 19.1468 59.6505 19.4305 59.1411C26.11 46.915 17.4121 38.5622 17.0392 38.2064C16.6096 37.8102 16.5934 37.139 16.9906 36.7186C17.3878 36.2981 18.0525 36.2658 18.4821 36.6701C18.5875 36.7671 28.777 46.4622 21.2949 60.1518C21.0923 60.5076 20.7275 60.7017 20.3546 60.7017Z" fill="#2C2C2C"/>
<path d="M27.0098 48.4028C25.5102 48.4028 23.8565 48.1198 22.1461 47.3436C21.6111 47.101 21.376 46.4784 21.6192 45.9447C21.8624 45.411 22.4866 45.1765 23.0216 45.4191C28.1933 47.756 32.8463 44.5782 32.8949 44.5458C33.3732 44.2143 34.0298 44.3275 34.3702 44.8046C34.7026 45.2816 34.5891 45.9366 34.1108 46.2762C33.9406 46.3975 31.0062 48.4028 27.0098 48.4028Z" fill="#2C2C2C"/>
<path d="M30.4144 60.8876C28.7527 60.8876 27.3989 59.5373 27.3989 57.8796C27.3989 56.222 28.7527 54.8716 30.4144 54.8716C32.0762 54.8716 33.4299 56.222 33.4299 57.8796C33.4299 59.5373 32.0762 60.8876 30.4144 60.8876ZM30.4144 56.9821C29.9199 56.9821 29.5146 57.3864 29.5146 57.8796C29.5146 58.3729 29.9199 58.7772 30.4144 58.7772C30.9089 58.7772 31.3142 58.3729 31.3142 57.8796C31.3142 57.3864 30.9089 56.9821 30.4144 56.9821Z" fill="#2C2C2C"/>
<path d="M49.2046 77.5044C49.1559 77.5044 49.1154 77.5044 49.0668 77.4963C48.4912 77.4235 48.0778 76.8898 48.1508 76.3157L48.6047 72.7902L37.6938 66.6853C36.2023 65.8443 34.581 66.6368 33.5678 67.6556L32.0681 66.1678C34.0298 64.2029 36.6481 63.6854 38.7233 64.8498L50.2503 71.3024C50.6232 71.5126 50.8339 71.9331 50.7853 72.3536L50.2584 76.5826C50.1854 77.1162 49.7315 77.5044 49.2046 77.5044Z" fill="#2C2C2C"/>
<path d="M14.8018 36.8641C14.7613 36.8641 14.7208 36.8641 14.6802 36.8641C13.5535 36.8399 12.6132 36.2819 12.0944 35.3359C11.5432 34.3089 11.5918 32.9586 12.2241 31.9721C12.8077 31.0664 13.7886 30.5732 14.9153 30.646C18.3605 30.84 20.4681 33.2092 20.5572 33.3144C20.7599 33.5408 20.849 33.848 20.8085 34.1472C20.768 34.4464 20.5978 34.7213 20.3465 34.883C18.3523 36.2011 16.4879 36.8641 14.8018 36.8641ZM14.7127 32.7483C14.3884 32.7483 14.1696 32.8615 14.0074 33.1122C13.7886 33.4518 13.7642 33.9855 13.9588 34.3413C14.1047 34.6162 14.356 34.7537 14.7127 34.7618C15.653 34.786 16.7473 34.4787 17.9389 33.8561C17.2094 33.3629 16.1231 32.8292 14.7856 32.7483C14.7694 32.7483 14.737 32.7483 14.7127 32.7483Z" fill="#2C2C2C"/>
<path d="M89.9381 88H1.0538C0.470158 88 0 87.531 0 86.9488C0 86.3666 0.470158 85.8976 1.0538 85.8976H89.9381C90.5217 85.8976 90.9919 86.3666 90.9919 86.9488C90.9919 87.531 90.5217 88 89.9381 88Z" fill="#2C2C2C"/>
<path d="M26.3694 33.3305C26.2073 33.3305 26.037 33.2901 25.8749 33.2092C25.3561 32.9424 25.1616 32.3036 25.4291 31.7861L41.8603 0.566028C42.1278 0.0485234 42.7682 -0.153627 43.287 0.121297C43.8058 0.388136 44.0003 1.02693 43.7328 1.54443L27.3097 32.7564C27.1232 33.1203 26.7504 33.3305 26.3694 33.3305Z" fill="#2C2C2C"/>
<path d="M43.2627 43.1631C43.0357 43.1631 42.8088 43.0903 42.6223 42.9448C42.1603 42.589 42.0711 41.9259 42.4278 41.465L68.5378 7.58468C68.8945 7.12378 69.5592 7.03483 70.0212 7.39061C70.4833 7.7464 70.5724 8.40945 70.2158 8.87035L44.0977 42.7507C43.8869 43.0176 43.5789 43.1631 43.2627 43.1631Z" fill="#2C2C2C"/>
<path d="M49.9828 33.6297C36.5184 33.6297 30.536 24.0721 30.2847 23.6597C29.9848 23.1583 30.1388 22.5115 30.6414 22.2123C31.144 21.905 31.7925 22.0667 32.0924 22.5681C32.3437 22.9724 37.9451 31.8104 50.5826 31.5193C51.1663 31.5354 51.6526 31.964 51.6607 32.5543C51.677 33.1365 51.2149 33.6216 50.6232 33.6297C50.4205 33.6297 50.2016 33.6297 49.9828 33.6297Z" fill="#2C2C2C"/>
<path d="M18.6928 76.3966H12.0863C11.5026 76.3966 11.0325 75.9276 11.0325 75.3454C11.0325 74.7632 11.5026 74.2942 12.0863 74.2942H18.6928C19.2765 74.2942 19.7466 74.7632 19.7466 75.3454C19.7547 75.9195 19.2765 76.3966 18.6928 76.3966Z" fill="#2C2C2C"/>
<path d="M10.6191 43.1631H5.6257C5.04206 43.1631 4.5719 42.6941 4.5719 42.1119C4.5719 41.5297 5.04206 41.0607 5.6257 41.0607H10.6191C11.2028 41.0607 11.6729 41.5297 11.6729 42.1119C11.6729 42.686 11.2028 43.1631 10.6191 43.1631Z" fill="#2C2C2C"/>
<path d="M21.1896 26.2229H8.12241C7.53876 26.2229 7.0686 25.7539 7.0686 25.1717C7.0686 24.5895 7.53876 24.1205 8.12241 24.1205H21.1977C21.7813 24.1205 22.2515 24.5895 22.2515 25.1717C22.2515 25.7539 21.7732 26.2229 21.1896 26.2229Z" fill="#2C2C2C"/>
<path d="M28.0393 19.3983H21.1895C20.6059 19.3983 20.1357 18.9293 20.1357 18.3471C20.1357 17.7649 20.6059 17.296 21.1895 17.296H28.0393C28.6229 17.296 29.0931 17.7649 29.0931 18.3471C29.0931 18.9293 28.631 19.3983 28.0393 19.3983Z" fill="#2C2C2C"/>
<path d="M30.4144 9.28275H14.656C14.0723 9.28275 13.6022 8.81376 13.6022 8.23157C13.6022 7.64938 14.0723 7.18039 14.656 7.18039H30.4144C30.998 7.18039 31.4682 7.64938 31.4682 8.23157C31.4763 8.81376 30.998 9.28275 30.4144 9.28275Z" fill="#2C2C2C"/>
</g>
<defs>
<clipPath id="clip0_490_3253">
<rect width="91" height="88" fill="white"/>
</clipPath>
</defs>
</svg>
